<svg width="54" height="54" viewBox="0 0 54 54" fill="none" xmlns="http://www.w3.org/2000/svg">
<circle cx="27" cy="27" r="27" fill="white"/>
<g clip-path="url(#clip0_3_5503)">
<path d="M25.1047 16.6565H24.1643C16.9055 16.6565 11 22.562 11 29.8208C11 37.0796 16.9055 42.9852 24.1643 42.9852C24.4807 42.9852 24.794 42.9727 25.1047 42.9505L25.7315 35.6508L25.1047 28.8805V16.6565Z" fill="#7E77FF"/>
<path d="M25.1047 28.8806V42.9506C25.7452 42.9049 26.3732 42.8141 26.9854 42.68C32.8931 41.385 37.3288 36.1117 37.3288 29.8209V28.8806H26.9854H25.1047Z" fill="#635BFF"/>
<path d="M42.97 26.0306C42.843 21.9179 41.2246 18.1155 38.4131 15.3242C35.6138 12.5451 31.892 11.0146 27.933 11.0146H26.9927V26.9999H42.9999L42.97 26.0306Z" fill="#BB64FF"/>
<path d="M17.5823 25.1194H20.4032V27H17.5823V25.1194Z" fill="#E9F1FF"/>
<path d="M15.7017 28.8806H21.3435V30.7612H15.7017V28.8806Z" fill="#E9F1FF"/>
</g>
<defs>
<clipPath id="clip0_3_5503">
<rect width="32" height="32" fill="white" transform="translate(11 11)"/>
</clipPath>
</defs>
</svg>
