<svg width="54" height="54" viewBox="0 0 54 54" fill="none" xmlns="http://www.w3.org/2000/svg">
<circle cx="27" cy="27" r="27" fill="#F0F2FF"/>
<g clip-path="url(#clip0_3_5704)">
<path d="M39.1875 25.125C39.1875 32.8875 32.8875 39.1875 25.125 39.1875C17.3625 39.1875 11 32.8875 11 25.125C11 17.3625 17.3625 11 25.125 11C32.8875 11 39.1875 17.3625 39.1875 25.125Z" fill="#7E77FF"/>
<path d="M39.1875 25.125C39.1875 32.8875 32.8875 39.1875 25.125 39.1875V11C32.8875 11 39.1875 17.3625 39.1875 25.125Z" fill="#635BFF"/>
<path d="M37.3125 25.125C37.3125 31.8562 31.8563 37.3125 25.125 37.3125C18.3937 37.3125 12.875 31.8562 12.875 25.125C12.875 18.3937 18.3937 12.875 25.125 12.875C31.8563 12.875 37.3125 18.3937 37.3125 25.125Z" fill="#7E77FF"/>
<path d="M37.3125 25.125C37.3125 31.8562 31.8563 37.3125 25.125 37.3125V12.875C31.8563 12.875 37.3125 18.3937 37.3125 25.125Z" fill="#635BFF"/>
<path d="M24.1875 14.8125H26.0625V16.6875H24.1875V14.8125Z" fill="white"/>
<path d="M24.1875 33.5625H26.0625V35.4375H24.1875V33.5625Z" fill="white"/>
<path d="M17.1685 18.4956L18.4939 17.1701L19.8194 18.4956L18.4939 19.8211L17.1685 18.4956Z" fill="white"/>
<path d="M17.1672 31.7529L18.4927 30.4274L19.8182 31.7529L18.4927 33.0784L17.1672 31.7529Z" fill="white"/>
<path d="M30.4258 18.4971L31.7513 17.1716L33.0768 18.4971L31.7513 19.8226L30.4258 18.4971Z" fill="#E2E2E2"/>
<path d="M14.8125 24.1875H16.6875V26.0625H14.8125V24.1875Z" fill="white"/>
<path d="M33.5625 24.1875H35.4375V26.0625H33.5625V24.1875Z" fill="#E2E2E2"/>
<path d="M29.8125 24.1875V26.0625H24.1875V18.5625H26.0625V24.1875H29.8125Z" fill="white"/>
<path d="M35.4375 27.9375C31.2937 27.9375 27.9375 31.2937 27.9375 35.4375C27.9375 39.5812 31.2937 43 35.4375 43C39.5813 43 43 39.5812 43 35.4375C43 31.2937 39.5813 27.9375 35.4375 27.9375Z" fill="#C67CFF"/>
<path d="M43 35.4375C43 39.5812 39.5813 43 35.4375 43V27.9375C39.5813 27.9375 43 31.2937 43 35.4375Z" fill="#BB64FF"/>
<path d="M38.9061 34.2188L35.4374 37.7063L34.4999 38.6438L31.9688 36.0938L33.2811 34.7812L34.4999 35.9813L35.4374 35.0438L37.5938 32.9062L38.9061 34.2188Z" fill="#F9F5F3"/>
<path d="M38.9062 34.2188L35.4375 37.7063V35.0438L37.5938 32.9062L38.9062 34.2188Z" fill="#F0DBD8"/>
<path d="M25.125 14.8125H26.0625V16.6875H25.125V14.8125Z" fill="#E2E2E2"/>
<path d="M25.125 33.5625H26.0625V35.4375H25.125V33.5625Z" fill="#E2E2E2"/>
<path d="M29.8125 24.1875V26.0625H25.125V18.5625H26.0625V24.1875H29.8125Z" fill="#E2E2E2"/>
</g>
<defs>
<clipPath id="clip0_3_5704">
<rect width="32" height="32" fill="white" transform="translate(11 11)"/>
</clipPath>
</defs>
</svg>
