<svg width="54" height="54" viewBox="0 0 54 54" fill="none" xmlns="http://www.w3.org/2000/svg">
<circle cx="27" cy="27" r="27" fill="#F0F2FF"/>
<g clip-path="url(#clip0_3_5636)">
<path d="M42.7253 29.1902C42.7187 29.1836 42.7121 29.177 42.7054 29.1705C41.6795 28.1592 39.9893 28.2571 38.9085 29.2095L34.8083 32.845C34.3175 33.3348 33.6144 33.625 32.8673 33.625H31.6875H27C26.4818 33.625 26.0625 33.2057 26.0625 32.6875C26.0625 32.1693 26.4818 31.75 27 31.75H31.6875H32.625C33.6605 31.75 34.5 30.9105 34.5 29.875C34.5 28.8395 33.6605 28 32.625 28H31.6875H28.7688C26.7546 25.7542 22.9259 25.5739 20.7158 27.6585L13.4939 34.416L19.0585 40.9538L22.6381 37.375H31.6875H34.9379C35.1774 37.375 35.408 37.2832 35.5821 37.1186L42.707 30.5341C43.093 30.1674 43.096 29.559 42.7253 29.1902Z" fill="#7E77FF"/>
<path d="M35.5822 37.1186L42.7071 30.5341C43.0931 30.1673 43.0961 29.5589 42.7254 29.1901C42.7188 29.1835 42.7121 29.1769 42.7054 29.1704C41.6796 28.1591 39.9893 28.257 38.9085 29.2094L34.8083 32.8449C34.3176 33.3348 33.6144 33.6249 32.8674 33.6249H31.6875V37.3749H34.9379C35.1775 37.375 35.4081 37.2832 35.5822 37.1186Z" fill="#7E77FF"/>
<path d="M32.625 31.75C33.6606 31.75 34.5 30.9104 34.5 29.875C34.5 28.8394 33.6606 28 32.625 28H31.6875V31.75H32.625Z" fill="#7E77FF"/>
<path d="M31.6875 26.125C35.8296 26.125 39.1875 22.7392 39.1875 18.5625C39.1875 14.3858 35.8296 11 31.6875 11C27.5454 11 24.1875 14.3858 24.1875 18.5625C24.1875 22.7392 27.5454 26.125 31.6875 26.125Z" fill="#C67CFF"/>
<path d="M39.1875 18.5625C39.1875 14.4271 35.8239 11 31.6875 11V26.125C35.8239 26.125 39.1875 22.6979 39.1875 18.5625Z" fill="#BB64FF"/>
<path d="M33.5625 22.3125C34.0803 22.3125 34.5 21.8928 34.5 21.375C34.5 20.8572 34.0803 20.4375 33.5625 20.4375C33.0447 20.4375 32.625 20.8572 32.625 21.375C32.625 21.8928 33.0447 22.3125 33.5625 22.3125Z" fill="white"/>
<path d="M29.8125 16.6875C30.3303 16.6875 30.75 16.2678 30.75 15.75C30.75 15.2322 30.3303 14.8125 29.8125 14.8125C29.2947 14.8125 28.875 15.2322 28.875 15.75C28.875 16.2678 29.2947 16.6875 29.8125 16.6875Z" fill="white"/>
<path d="M34.0826 14.9701C33.656 14.6853 33.0701 14.797 32.7826 15.2301L31.6876 16.8725L29.0326 20.8551C28.7451 21.2862 28.8622 21.8676 29.2926 22.1551C29.7199 22.4399 30.3021 22.3294 30.5926 21.8951L31.6876 20.2527L34.3426 16.2701C34.6301 15.8389 34.5129 15.2575 34.0826 14.9701Z" fill="#EDF3FF"/>
<path d="M34.0826 14.9701C33.6559 14.6853 33.07 14.797 32.7825 15.2301L31.6875 16.8725V20.2526L34.3425 16.2701C34.63 15.8389 34.5128 15.2575 34.0826 14.9701Z" fill="white"/>
<path d="M12.6006 33.5111L11.2745 34.8372C10.9085 35.2033 10.9085 35.7969 11.2745 36.1629L17.837 42.7254C18.2032 43.0916 18.7965 43.0917 19.1627 42.7254L20.4888 41.3994C20.8549 41.0332 20.8549 40.4397 20.4888 40.0736L13.9264 33.5111C13.5603 33.1451 12.9667 33.1451 12.6006 33.5111Z" fill="#635BFF"/>
</g>
<defs>
<clipPath id="clip0_3_5636">
<rect width="32" height="32" fill="white" transform="translate(11 11)"/>
</clipPath>
</defs>
</svg>
