<svg width="54" height="54" viewBox="0 0 54 54" fill="none" xmlns="http://www.w3.org/2000/svg">
<circle cx="27" cy="27" r="27" fill="#F0F2FF"/>
<path d="M32.625 39.1876H21.375C20.6489 39.1876 20.1957 38.3941 20.5712 37.7676L26.1962 28.3926H27.8039L33.4289 37.7676C33.8037 38.3929 33.3525 39.1876 32.625 39.1876Z" fill="#7E77FF"/>
<path d="M27 28.3926V39.1876H32.625C33.3525 39.1876 33.8036 38.3929 33.4288 37.7676L27.8038 28.3926H27Z" fill="#635BFF"/>
<path d="M42.0625 29.8125H11.9375C11.4193 29.8125 11 29.3932 11 28.875C11 28.3568 11.4193 27.9375 11.9375 27.9375H42.0625C42.5807 27.9375 43 28.3568 43 28.875C43 29.3932 42.5807 29.8125 42.0625 29.8125Z" fill="#BFC7D6"/>
<path d="M42.0625 29.8125C42.5807 29.8125 43 29.3932 43 28.875C43 28.3568 42.5807 27.9375 42.0625 27.9375H27V29.8125H42.0625Z" fill="#D8E0F0"/>
<path d="M16.625 26.0625C13.5232 26.0625 11 23.5393 11 20.4375C11 17.3357 13.5232 14.8125 16.625 14.8125C19.7268 14.8125 22.25 17.3357 22.25 20.4375C22.25 23.5393 19.7268 26.0625 16.625 26.0625Z" fill="#635BFF"/>
<path d="M37.375 26.0625C34.2732 26.0625 31.75 23.5393 31.75 20.4375C31.75 17.3357 34.2732 14.8125 37.375 14.8125C40.4768 14.8125 43 17.3357 43 20.4375C43 23.5393 40.4768 26.0625 37.375 26.0625Z" fill="#BB64FF"/>
</svg>
