<svg width="28" height="28" viewBox="0 0 28 28" fill="none" xmlns="http://www.w3.org/2000/svg">
<path d="M7.29581 18.9361C12.5103 20.9711 16.9478 21.3675 21.9764 18.2C21.9395 18.2553 20.9448 19.7289 18.329 20.4842C18.8816 21.2395 19.6369 22.1052 19.6369 22.1052C21.3133 22.1052 22.9527 21.6263 24.3711 20.7052C25.4764 19.9684 26.1027 18.6973 25.9737 17.371C25.7527 15.1052 25.2184 12.8947 24.3895 10.7763C23.3395 8.01318 20.8159 6.09737 17.8869 5.82104C17.629 5.80261 17.4448 5.80261 17.3343 5.80261L17.0396 6.09732C20.4106 7.05522 22.087 8.54732 22.1238 8.60261C16.9474 5.98679 10.8317 5.94999 5.61849 8.49208C5.61849 8.49208 7.2764 6.85261 10.9422 5.98679L10.7211 5.76575C10.3343 5.76575 9.96582 5.80261 9.57902 5.85784C6.87111 6.31836 4.60535 8.17889 3.62902 10.7394C2.78164 12.9499 2.22902 15.271 2.0264 17.6289C1.91588 18.8815 2.50535 20.1157 3.53692 20.8342C4.90006 21.7368 6.52111 22.2157 8.16059 22.2157C8.16059 22.2157 8.82373 21.3499 9.48692 20.5763C7.00006 19.8394 5.98692 18.3657 5.96849 18.3105L6.43651 18.5494C6.71629 18.6924 7.00313 18.8219 7.29581 18.9361ZM10.1869 17.3342C8.98954 17.2973 8.05006 16.2842 8.08692 15.0684C8.12378 13.9263 9.04483 13.0052 10.1869 12.9684C11.3843 13.0052 12.3238 14.0184 12.2869 15.2342C12.2316 16.3763 11.329 17.2974 10.1869 17.3342ZM17.7027 17.3342C16.5053 17.2973 15.5658 16.2842 15.6027 15.0684C15.6395 13.9263 16.5606 13.0052 17.7027 12.9684C18.9001 13.0052 19.8395 14.0184 19.8027 15.2342C19.7659 16.3763 18.8448 17.2974 17.7027 17.3342Z" fill="white"/>
</svg>
