<svg width="48" height="27" viewBox="0 0 48 27" fill="none" xmlns="http://www.w3.org/2000/svg">
<path d="M11.5426 8.40746L12.6001 10.5225C12.7426 10.815 13.1251 11.0925 13.4476 11.1525L15.3601 11.4675C16.5826 11.67 16.8676 12.555 15.9901 13.44L14.4976 14.9325C14.2501 15.18 14.1076 15.6675 14.1901 16.02L14.6176 17.865C14.9551 19.32 14.1751 19.89 12.8926 19.125L11.1001 18.06C10.7776 17.865 10.2376 17.865 9.91508 18.06L8.12258 19.125C6.84008 19.8825 6.06008 19.32 6.39758 17.865L6.82508 16.02C6.89258 15.66 6.75008 15.1725 6.50258 14.925L5.01008 13.4325C4.13258 12.555 4.41758 11.67 5.64008 11.46L7.55258 11.145C7.87508 11.0925 8.25758 10.8075 8.40008 10.515L9.45758 8.39996C10.0351 7.25996 10.9651 7.25996 11.5426 8.40746Z" fill="#FFBF00"/>
<path d="M6 8.8125H1.5C1.1925 8.8125 0.9375 8.5575 0.9375 8.25C0.9375 7.9425 1.1925 7.6875 1.5 7.6875H6C6.3075 7.6875 6.5625 7.9425 6.5625 8.25C6.5625 8.5575 6.3075 8.8125 6 8.8125Z" fill="#FFBF00"/>
<path d="M3.75 19.3125H1.5C1.1925 19.3125 0.9375 19.0575 0.9375 18.75C0.9375 18.4425 1.1925 18.1875 1.5 18.1875H3.75C4.0575 18.1875 4.3125 18.4425 4.3125 18.75C4.3125 19.0575 4.0575 19.3125 3.75 19.3125Z" fill="#FFBF00"/>
<path d="M2.25 14.0625H1.5C1.1925 14.0625 0.9375 13.8075 0.9375 13.5C0.9375 13.1925 1.1925 12.9375 1.5 12.9375H2.25C2.5575 12.9375 2.8125 13.1925 2.8125 13.5C2.8125 13.8075 2.5575 14.0625 2.25 14.0625Z" fill="#FFBF00"/>
<path d="M29.544 20.5V17.748H23.688V16.452L29.512 8.58H31.016V16.452H32.568V17.748H31.016V20.5H29.544ZM24.872 17.012L24.648 16.452H29.544V9.892L30.008 10.02L24.872 17.012ZM34.9631 20.5V18.58H36.5151V20.5H34.9631ZM40.3293 20.5L44.4413 15.14L44.7293 15.172C44.5693 15.3853 44.3933 15.556 44.2013 15.684C44.0093 15.8013 43.7959 15.8867 43.5613 15.94C43.3373 15.9933 43.0919 16.02 42.8253 16.02C42.1213 16.02 41.4866 15.86 40.9213 15.54C40.3666 15.2093 39.9239 14.7613 39.5933 14.196C39.2733 13.62 39.1133 12.964 39.1133 12.228C39.1133 11.492 39.2839 10.836 39.6253 10.26C39.9666 9.684 40.4359 9.23067 41.0333 8.9C41.6306 8.55867 42.3026 8.388 43.0493 8.388C43.8173 8.388 44.4946 8.55867 45.0813 8.9C45.6786 9.23067 46.1479 9.69467 46.4893 10.292C46.8306 10.8787 47.0013 11.556 47.0013 12.324C47.0013 12.74 46.9533 13.1507 46.8573 13.556C46.7613 13.9613 46.6066 14.372 46.3933 14.788C46.1906 15.204 45.9186 15.636 45.5773 16.084L42.2173 20.5H40.3293ZM43.0493 14.644C43.5079 14.644 43.9133 14.5427 44.2653 14.34C44.6279 14.1267 44.9106 13.8387 45.1133 13.476C45.3159 13.1027 45.4173 12.6867 45.4173 12.228C45.4173 11.748 45.3106 11.3267 45.0973 10.964C44.8946 10.6013 44.6173 10.3133 44.2653 10.1C43.9133 9.88667 43.5079 9.78 43.0493 9.78C42.6013 9.78 42.2013 9.88667 41.8493 10.1C41.4973 10.3133 41.2146 10.6013 41.0013 10.964C40.7986 11.3267 40.6973 11.748 40.6973 12.228C40.6973 12.6867 40.7986 13.1027 41.0013 13.476C41.2039 13.8387 41.4813 14.1267 41.8333 14.34C42.1959 14.5427 42.6013 14.644 43.0493 14.644Z" fill="#111928"/>
</svg>
